# xmcd
#
# Track frame offsets:
#	150
#	20943
#	45403
#	68023
#	85943
#	103150
#	123888
#	144110
#	163333
#	185188
#
# Disc length: 2829 seconds
# Revision: 8
# Processed by: cddbd v1.5.2PL0 Copyright (c) Steve Scherf et al.
# Submitted via: dBpowerAMP V12.0
#
DISCID=890b0b0a
DTITLE=Whitney Houston - Whitney Houston
DYEAR=1985
DGENRE=R&B
TTITLE0=You Give Good Love
TTITLE1=Thinking About You
TTITLE2=Someone for Me
TTITLE3=Saving All My Love for You
TTITLE4=Nobody Loves Me Like You Do
TTITLE5=How Will I Know
TTITLE6=All at Once
TTITLE7=Take Good Care of My Heart
TTITLE8=Greatest Love of All
TTITLE9=Hold Me
EXTD=
EXTT0=
EXTT1=
EXTT2=
EXTT3=
EXTT4=
EXTT5=
EXTT6=
EXTT7=
EXTT8=
EXTT9=
PLAYORDER=
